<svg xmlns="http://www.w3.org/2000/svg" xmlns:xlink="http://www.w3.org/1999/xlink" version="1.1" id="Capa_1" x="0px" y="0px" viewBox="0 0 461.698 461.698" style="enable-background:new 0 0 461.698 461.698;" xml:space="preserve">
<g>
	<path style="fill:#1e824c;" d="M350.664,175.289c5.263,0,10.233-2.297,13.628-6.295l45.742-53.702   c5.734-6.719,5.734-16.48,0.006-23.217l-45.76-53.708c-3.413-3.992-8.377-6.283-13.616-6.283h-71.101h-1.993V17.901   C277.57,8.031,269.538,0,259.669,0h-36.296c-9.869,0-17.901,8.031-17.901,17.901v14.183h-95.47   c-9.869,0-17.901,8.031-17.901,17.901v107.404c0,9.869,8.031,17.901,17.901,17.901h95.219v13.181h-8.909h-11.934h-73.345   c-5.263,0-10.233,2.297-13.628,6.295l-45.742,53.702c-5.734,6.719-5.734,16.48-0.006,23.217l45.76,53.708   c3.413,3.992,8.377,6.283,13.616,6.283h19.643h51.458h1.993h11.934h9.159v112.123c0,9.869,8.031,17.901,17.901,17.901h36.296   c9.869,0,17.901-8.031,17.901-17.901V331.674h24.906h49.471c9.869,0,17.901-8.031,17.901-17.901V206.37   c0-9.869-8.031-17.901-17.901-17.901h-49.471h-24.906v-13.181C277.319,175.289,350.664,175.289,350.664,175.289z M217.406,17.907   c0-3.288,2.679-5.967,5.967-5.967h36.296c3.294,0,5.967,2.679,5.967,5.967V32.09h-48.23V17.907z M265.385,443.798   c0,3.294-2.673,5.967-5.967,5.967h-36.296c-3.288,0-5.967-2.673-5.967-5.967V331.674h27.137h11.934h9.159V443.798z    M351.696,200.403c3.288,0,5.967,2.679,5.967,5.967v107.404c0,3.288-2.679,5.967-5.967,5.967h-74.377h-11.934h-15.126h-5.967   h-27.137h-11.934h-9.159h-13.927h-71.101c-1.748,0-3.401-0.77-4.547-2.1l-45.742-53.702c-1.909-2.244-1.915-5.501-0.006-7.739   l45.754-53.708c1.128-1.331,2.787-2.094,4.541-2.094h79.312h5.967h8.909h11.934h27.388h5.967h14.875h11.934h74.377V200.403z    M256.477,188.47h-11.934h-27.388v-13.181h48.23v13.181H256.477z M271.352,163.355h-5.967h-48.23h-5.967H110.002   c-3.288,0-5.967-2.679-5.967-5.967V49.984c0-3.288,2.679-5.967,5.967-5.967h101.437h5.967h48.23h13.927h71.101   c1.748,0,3.401,0.77,4.547,2.1l45.742,53.702c1.909,2.244,1.915,5.501,0.006,7.739l-45.754,53.708   c-1.128,1.331-2.787,2.094-4.541,2.094h-79.312V163.355z"/>
</g>
<g>
</g>
<g>
</g>
<g>
</g>
<g>
</g>
<g>
</g>
<g>
</g>
<g>
</g>
<g>
</g>
<g>
</g>
<g>
</g>
<g>
</g>
<g>
</g>
<g>
</g>
<g>
</g>
<g>
</g>
</svg>